ffmpeg version 2.8.11-0ubuntu0.16.04.1 Copyright (c) 2000-2017 the FFmpeg developers
  built with gcc 5.4.0 (Ubuntu 5.4.0-6ubuntu1~16.04.4) 20160609
  configuration: --prefix=/usr --extra-version=0ubuntu0.16.04.1 --build-suffix=-ffmpeg --toolchain=hardened --libdir=/usr/lib/x86_64-linux-gnu --incdir=/usr/include/x86_64-linux-gnu --cc=cc --cxx=g++ --enable-gpl --enable-shared --disable-stripping --disable-decoder=libopenjpeg --disable-decoder=libschroedinger --enable-avresample --enable-avisynth --enable-gnutls --enable-ladspa --enable-libass --enable-libbluray --enable-libbs2b --enable-libcaca --enable-libcdio --enable-libflite --enable-libfontconfig --enable-libfreetype --enable-libfribidi --enable-libgme --enable-libgsm --enable-libmodplug --enable-libmp3lame --enable-libopenjpeg --enable-libopus --enable-libpulse --enable-librtmp --enable-libschroedinger --enable-libshine --enable-libsnappy --enable-libsoxr --enable-libspeex --enable-libssh --enable-libtheora --enable-libtwolame --enable-libvorbis --enable-libvpx --enable-libwavpack --enable-libwebp --enable-libx265 --enable-libxvid --enable-libzvbi --enable-openal --enable-opengl --enable-x11grab --enable-libdc1394 --enable-libiec61883 --enable-libzmq --enable-frei0r --enable-libx264 --enable-libopencv
  libavutil      54. 31.100 / 54. 31.100
  libavcodec     56. 60.100 / 56. 60.100
  libavformat    56. 40.101 / 56. 40.101
  libavdevice    56.  4.100 / 56.  4.100
  libavfilter     5. 40.101 /  5. 40.101
  libavresample   2.  1.  0 /  2.  1.  0
  libswscale      3.  1.101 /  3.  1.101
  libswresample   1.  2.101 /  1.  2.101
  libpostproc    53.  3.100 / 53.  3.100
[mp3 @ 0x23228c0] Unknown attached picture mimetype: ('image/png', None), skipping.
[mp3 @ 0x23228c0] Skipping 0 bytes of junk at 17522.
Input #0, mp3, from 'boleslaw-lesmian-swidryga-i-midryga.mp3':
  Metadata:
    title           : Bolesław Leśmian, "Świdryga i Midryga"
    artist          : Katarzyna Maciąg
    album           : Wolne Lektury
    encoder         : Lavf53.21.0
    genre           : Speech
    originator_reference: JtiM2dWuRDiaaaGk
    date            : 2008-10-16
    performer       : Sebastian Buttny
    album_artist    : Fundacja Nowoczesna Polska
    time_reference  : 599315467
    copyright       : 2008 Fundacja Nowoczesna Polska. Licensed to the public under http://creativecommons.org/licenses/by-sa/3.0/deed.pl verify at http://wolnelektury.pl/katalog/lektura/swidryga-i-midryga/
    creation_time   : 0009-50-45
    encoded_by      : Pro Tools
    publisher       : Fundacja Nowoczesna Polska
  Duration: 00:03:28.27, start: 0.000000, bitrate: 64 kb/s
    Stream #0:0: Audio: mp3, 44100 Hz, mono, s16p, 64 kb/s
Output #0, null, to 'pipe:':
  Metadata:
    title           : Bolesław Leśmian, "Świdryga i Midryga"
    artist          : Katarzyna Maciąg
    album           : Wolne Lektury
    publisher       : Fundacja Nowoczesna Polska
    genre           : Speech
    originator_reference: JtiM2dWuRDiaaaGk
    date            : 2008-10-16
    performer       : Sebastian Buttny
    album_artist    : Fundacja Nowoczesna Polska
    time_reference  : 599315467
    copyright       : 2008 Fundacja Nowoczesna Polska. Licensed to the public under http://creativecommons.org/licenses/by-sa/3.0/deed.pl verify at http://wolnelektury.pl/katalog/lektura/swidryga-i-midryga/
    encoded_by      : Pro Tools
    encoder         : Lavf56.40.101
    Stream #0:0: Audio: pcm_s16le, 44100 Hz, mono, s16, 705 kb/s
    Metadata:
      encoder         : Lavc56.60.100 pcm_s16le
Stream mapping:
  Stream #0:0 -> #0:0 (mp3 (native) -> pcm_s16le (native))
Press [q] to stop, [?] for help
[silencedetect @ 0x2335ae0] silence_start: -0.00367347
[silencedetect @ 0x2335ae0] silence_end: 0.653061 | silence_duration: 0.656735
[silencedetect @ 0x2335ae0] silence_start: 3.1049
[silencedetect @ 0x2335ae0] silence_end: 5.3551 | silence_duration: 2.2502
[silencedetect @ 0x2335ae0] silence_start: 10.8633
[silencedetect @ 0x2335ae0] silence_end: 11.5461 | silence_duration: 0.682857
[silencedetect @ 0x2335ae0] silence_start: 16.9237
[silencedetect @ 0x2335ae0] silence_end: 17.6065 | silence_duration: 0.682857
[silencedetect @ 0x2335ae0] silence_start: 28.2608
[silencedetect @ 0x2335ae0] silence_end: 28.7608 | silence_duration: 0.5
[silencedetect @ 0x2335ae0] silence_start: 35.8886
[silencedetect @ 0x2335ae0] silence_end: 36.4931 | silence_duration: 0.60449
[silencedetect @ 0x2335ae0] silence_start: 41.8967
[silencedetect @ 0x2335ae0] silence_end: 43.1804 | silence_duration: 1.28367
[silencedetect @ 0x2335ae0] silence_start: 45.3971
[silencedetect @ 0x2335ae0] silence_end: 46.1061 | silence_duration: 0.70898
[silencedetect @ 0x2335ae0] silence_start: 48.2967
[silencedetect @ 0x2335ae0] silence_end: 48.9273 | silence_duration: 0.630612
[silencedetect @ 0x2335ae0] silence_start: 55.0886
[silencedetect @ 0x2335ae0] silence_end: 56.0588 | silence_duration: 0.970204
[silencedetect @ 0x2335ae0] silence_start: 60.8616
[silencedetect @ 0x2335ae0] silence_end: 61.649 | silence_duration: 0.787347
[silencedetect @ 0x2335ae0] silence_start: 67.0004
[silencedetect @ 0x2335ae0] silence_end: 67.5527 | silence_duration: 0.552245
[silencedetect @ 0x2335ae0] silence_start: 91.7906
[silencedetect @ 0x2335ae0] silence_end: 92.6563 | silence_duration: 0.865714
[silencedetect @ 0x2335ae0] silence_start: 96.2837
[silencedetect @ 0x2335ae0] silence_end: 97.6718 | silence_duration: 1.38816
[silencedetect @ 0x2335ae0] silence_start: 100.071
[silencedetect @ 0x2335ae0] silence_end: 102.087 | silence_duration: 2.0151
[silencedetect @ 0x2335ae0] silence_start: 107.151
[silencedetect @ 0x2335ae0] silence_end: 107.912 | silence_duration: 0.761224
[silencedetect @ 0x2335ae0] silence_start: 113.838
[silencedetect @ 0x2335ae0] silence_end: 114.965 | silence_duration: 1.12694
[silencedetect @ 0x2335ae0] silence_start: 117.6
[silencedetect @ 0x2335ae0] silence_end: 118.126 | silence_duration: 0.526122
[silencedetect @ 0x2335ae0] silence_start: 127.056
[silencedetect @ 0x2335ae0] silence_end: 127.556 | silence_duration: 0.5
[silencedetect @ 0x2335ae0] silence_start: 140.457
[silencedetect @ 0x2335ae0] silence_end: 141.192 | silence_duration: 0.735102
[silencedetect @ 0x2335ae0] silence_start: 151.324
[silencedetect @ 0x2335ae0] silence_end: 151.98 | silence_duration: 0.656735
[silencedetect @ 0x2335ae0] silence_start: 154.223
[silencedetect @ 0x2335ae0] silence_end: 155.533 | silence_duration: 1.3098
[silencedetect @ 0x2335ae0] silence_start: 156.966
[silencedetect @ 0x2335ae0] silence_end: 157.753 | silence_duration: 0.787347
[silencedetect @ 0x2335ae0] silence_start: 158.716
[silencedetect @ 0x2335ae0] silence_end: 160.653 | silence_duration: 1.93673
[silencedetect @ 0x2335ae0] silence_start: 161.982
[silencedetect @ 0x2335ae0] silence_end: 162.612 | silence_duration: 0.630612
[silencedetect @ 0x2335ae0] silence_start: 163.601
[silencedetect @ 0x2335ae0] silence_end: 164.18 | silence_duration: 0.578367
[silencedetect @ 0x2335ae0] silence_start: 166.083
[silencedetect @ 0x2335ae0] silence_end: 167.549 | silence_duration: 1.46653
[silencedetect @ 0x2335ae0] silence_start: 172.692
[silencedetect @ 0x2335ae0] silence_end: 173.61 | silence_duration: 0.917959
[silencedetect @ 0x2335ae0] silence_start: 176.14
[silencedetect @ 0x2335ae0] silence_end: 176.849 | silence_duration: 0.70898
[silencedetect @ 0x2335ae0] silence_start: 179.484
[silencedetect @ 0x2335ae0] silence_end: 180.088 | silence_duration: 0.60449
[silencedetect @ 0x2335ae0] silence_start: 186.85
[silencedetect @ 0x2335ae0] silence_end: 187.873 | silence_duration: 1.02245
[silencedetect @ 0x2335ae0] silence_start: 198.318
[silencedetect @ 0x2335ae0] silence_end: 198.949 | silence_duration: 0.630612
[silencedetect @ 0x2335ae0] silence_start: 202.863
[silencedetect @ 0x2335ae0] silence_end: 203.363 | silence_duration: 0.5
[silencedetect @ 0x2335ae0] silence_start: 206.129
size=N/A time=00:03:28.27 bitrate=N/A    
video:0kB audio:17939kB subtitle:0kB other streams:0kB global headers:0kB muxing overhead: unknown
